<svg xmlns="http://www.w3.org/2000/svg" xmlns:xlink="http://www.w3.org/1999/xlink" width="100" height="100" viewBox="0 0 100 100"><circle stroke="none" fill="#000000" r="48%" cx="50%" cy="50%"></circle><g transform="translate(50 50) scale(0.69 0.69) rotate(0) translate(-50 -50)" style="fill:#ffffff"><svg fill="#ffffff" xmlns="http://www.w3.org/2000/svg" viewBox="0 0 156.95381 176.08305" x="0px" y="0px"><title>sleepy_cats_black_10</title><g data-name="Layer 2"><g data-name="Layer 1"><path d="M83.41293,28.75117a42.93713,42.93713,0,0,0,10.43531-7.0609c3.07215-2.82945,5.24808-4.884,6.325-8.37514.48592-1.57358,1.99-6.588-1.073-10.12506A8.5157,8.5157,0,0,0,90.28351.8757a10.6146,10.6146,0,0,0-6.58037,6.5839A12.43338,12.43338,0,0,0,75.39448.25584c-.67839-.17115-4.95268-.99326-7.821,1.64135-3.06524,2.816-2.39537,7.65349-2.1663,9.3072C66.9339,22.2324,81.56071,28.04238,83.41293,28.75117Z"></path><path d="M89.0169,39.11915a5.77063,5.77063,0,0,0-.97461-3.82129,5.37953,5.37953,0,0,0-1.09179-1.27539,4.30758,4.30758,0,0,0-4.64942-.41406,4.76721,4.76721,0,0,0-2.43066,4.04687C79.77081,42.41212,88.27179,44.48829,89.0169,39.11915Z"></path><path d="M100.155,96.57508c-.63378-1.9613-2.67089-2.93445-4.769-3.80993a32.18238,32.18238,0,0,0-8.63611-2.12891c-1.0498-.106-2.09143-.191-3.1997-.22681a94.2275,94.2275,0,0,0-10.1106.3158.98219.98219,0,0,1-1.05762-.87036.96029.96029,0,0,1,.8523-1.07434,82.19045,82.19045,0,0,1,9.405-.40186,64.71091,64.71091,0,0,1,1.05-24.97729c-.09851-.1875-.13062-.1554-.19727-.37159-1.01636-3.30029-1.44141-5.389-2.88611-9.50512-.01257-.036-3.29919-7.70789-4.55-8.59339-.24817-.17578-.90881-1.41735-1.22339-1.32043s.137-.13684-.22119.06726a2.25012,2.25012,0,0,0-.967,1.14392,29.56362,29.56362,0,0,0-2.255,7.34876,1.05173,1.05173,0,0,1-.93128.868,116.33814,116.33814,0,0,0-20.635,3.91528.98958.98958,0,0,1-1.00317-.28686,68.471,68.471,0,0,0-7.00037-6.4917c-.61377-.46936-1.10266-1.311-2.10327-.34876a5.49716,5.49716,0,0,0-.2135,3.30078c.61926,2.59717,1.40027,8.4646,2.71509,11.89575.60388,1.57593,1.18616,4.42933,1.72314,6.17237-1.214-.028-2.43506-.142-3.65612-.053a2.57493,2.57493,0,0,0-.50159.049.99292.99292,0,0,0,.204,1.97461,4.1272,4.1272,0,0,0,.44678-.03479,21.50569,21.50569,0,0,1,3.99792.21655c.12634.60205.24451,1.209.35547,1.81238-1.43836.13562-2.88049.17944-4.31909.34863a.97909.97909,0,0,0,.147,1.9524c1.50134-.04737,2.98352-.23792,4.48267-.30188.04382.55859.1914,1.37023.18322,1.89209a54.317,54.317,0,0,1-4.2478,20.05273c-.04407.10937-.07446.168-.09912.22485a36.6509,36.6509,0,0,1-3.30762,6.3c-.01416.02051-.01745.00366-.02075.02844a19.83349,19.83349,0,0,0,.324,2.73645.87316.87316,0,0,1-.9895.93726c-.60144-.08264-.9165-.29529-.9696-1.05615a10.08238,10.08238,0,0,0-.48963-2.67835,3.32647,3.32647,0,0,0-.20886-.52514,12.16413,12.16413,0,0,0-5.79846-4.6659c-.03821-.016.18921.08277.18738.0868-.00281.0061-1.19251-.48365-1.32593-.53772-2.03088-.82349-4.885-.29822-5.75769-.13758a16.13047,16.13047,0,0,0-5.49512,2.11939,10.30842,10.30842,0,0,0-2.62988,3.50561,16.89659,16.89659,0,0,0-.9917,6.11475,9.96158,9.96158,0,0,0,.05762,1.56506c.08764.57813.15942.31507-.5116.71961-.99072.59765.073.53088-1.57507-.26441s-4.57093-2.7854-7.44983-1.66711c-.8728.33911-4.00916,1.23535-3.98169,3.24438.01868,1.37134.29944,3.03357,1.83789,3.76807.56482.26977.70569.20642,1.58752.17993a16.35767,16.35767,0,0,1,3.48389.17127,27.00184,27.00184,0,0,1,4.12622,1.1958c.48865.19812.62586.26513,1.04175.45324a13.0024,13.0024,0,0,1-.43872-1.43176.98379.98379,0,0,1,1.89648-.52234c.4314,1.18823.73719,2.366,1.23047,3.54932a63.05131,63.05131,0,0,0,5.97656,11.04065c.08167.12121.16163.20154.22767.32275a1.04679,1.04679,0,0,1-.178,1.39856c-.051.053-.17639.06384-.2168.14319-.46167.905-1.12756,2.20129-1.533,3.00146-1.05517,2.0835-1.44507,2.49463-2.66577,5.06617-2.47961,5.22473-2.14172,12.28686.08386,17.5271,2.81665,6.63159,7.68689,11.11694,15.00855,12.35839a21.29934,21.29934,0,0,0,10.74157-.9768c2.14844-.77271,8.00611-3.2345,6.39283-6.52649-1.75159-3.57434-6.485.27734-8.58814,1.14831a14.113,14.113,0,0,1-9.15576.53174c-7.35779-2.38305-11.22681-9.10364-10.46838-16.68725.36352-3.63611.73083-2.60328,1.51074-5.04468.06286-.19666.15405.04394.21277-.16431a6.39744,6.39744,0,0,1-2.08679-2.084,4.1919,4.1919,0,0,1-.19251-3.81861,7.25013,7.25013,0,0,1,4.19043-3.84948c2.41064-.84754,4.80212-.50171,7.24585-.15442-.312-3.78943-.56323-6.99011,2.35644-9.98023a13.86805,13.86805,0,0,1,11.64246-4.28674c4.07813.28162,7.93469,2.51587,11.23657,5.027a.97949.97949,0,0,1,.09973,1.37988,1.04368,1.04368,0,0,1-1.38085.09546c-3.0055-2.18176-6.46424-4.29846-10.11878-4.52307-4.12549-.25366-7.26868.73523-9.99731,3.65613s-2.38819,6.15368-1.11939,9.62329c.16.43774.25611.78576-.0321,1.15649a.97186.97186,0,0,1-1.08667.35645c-2.79407-.65149-5.355-1.30835-8.18274-.4657a4.9814,4.9814,0,0,0-3.07471,2.82934,2.37279,2.37279,0,0,0,.13464,2.29541,4.27213,4.27213,0,0,0,2.147,1.66578,6.43476,6.43476,0,0,0,2.8313.29614,14.60767,14.60767,0,0,0,2.82495-.8003,6.678,6.678,0,0,1,3.92761-.48767,5.59041,5.59041,0,0,1,3.11487,2.62195c.502.74243,1.52624,1.92639,1.98657,2.47559a16.04361,16.04361,0,0,0,6.452,3.76416c5.93542.78052,8.60376,1.06543,14.06408-1.26087,4.007-1.70715,6.11719-2.6936,10.29505-7.17834,1.20593-1.29456,5.88952-7.76514,6.88928-12.57788.6947-3.34424,3.84888-12.714,3.58948-17.53626-.06555-1.21862.2467-3.45654.22424-4.75366a2.08,2.08,0,0,1,.01611-.34131.47736.47736,0,0,1,.04871-.19812,1.35716,1.35716,0,0,0,.08252-.73962c-.08228-.12085-.04321-.04212-.05554-.0387-.92176.25562-1.39539.47962-2.37842.80457a19.0243,19.0243,0,0,1-5.03992,1.30151c-1.661.11548-4.40771.55982-5.69909-1.15491s-2.49671-3.39257-.98353-5.68493c4.37464-6.62757,12.656-7.08045,19.905-6.09009,2.75989.37708,5.5824,2.01978,7.4458,2.8446,2.245.99366,3.15552,2.13111,5.04578,1.25708S100.78888,98.53639,100.155,96.57508ZM71.06012,65.63294a4.10138,4.10138,0,0,1,2.397-2.1112,8.00138,8.00138,0,0,1,2.85364-.42786A6.18243,6.18243,0,0,1,80.75836,64.434a.94923.94923,0,0,1-.00049,1.38843.99542.99542,0,0,1-1.4032.00439,4.65867,4.65867,0,0,0-2.97363-.74426,7.40878,7.40878,0,0,0-2.1969.29358,2.08475,2.08475,0,0,0-1.27844,1.01721,1.0908,1.0908,0,0,1-.83289.61523.596.596,0,0,1-.4956-.0736A.96051.96051,0,0,1,71.06012,65.63294ZM60.11517,69.13075a.99326.99326,0,0,1-1.31128.48291A6.59455,6.59455,0,0,0,54.53,69.3025a6.24171,6.24171,0,0,0-3.39367,2.49622,1.07958,1.07958,0,0,1-.7594.46228.82471.82471,0,0,1-.618-.15076.96809.96809,0,0,1-.30652-1.36353,8.14874,8.14874,0,0,1,4.52636-3.35608,8.37607,8.37607,0,0,1,5.66.43018A.94669.94669,0,0,1,60.11517,69.13075Zm8.3446,2.23547a6.9412,6.9412,0,0,1-1.32531,1.60388,7.244,7.244,0,0,1-3.36316,1.45447c-.71094.08337.21887.00452-.21936.01709a.97647.97647,0,0,1-1.01221-.89685.956.956,0,0,1,.92017-1.083,5.45991,5.45991,0,0,0,2.34509-.98132,4.74942,4.74942,0,0,0,1.18249-1.64624.91111.91111,0,0,1,.54932-.60218.84232.84232,0,0,1,.77087-.02685,10.35984,10.35984,0,0,0,2.26722.5249,9.84511,9.84511,0,0,0,2.03662-.07959.948.948,0,0,1,1.15393.80127.93635.93635,0,0,1-.81812,1.1543,10.14069,10.14069,0,0,1-2.507.11743A11.97684,11.97684,0,0,1,68.45977,71.36622Z"></path><path d="M156.8847,122.76978a3.18789,3.18789,0,0,0-.51233-2.35192,9.15036,9.15036,0,0,0-5.38635-3.807,8.65355,8.65355,0,0,0-5.64954.74329,1.00033,1.00033,0,0,1-1.161-1.59009,11.61334,11.61334,0,0,0,3.29016-9.26673,7.82915,7.82915,0,0,0-3.05066-5.70276c-2.68249-1.7799-7.14624-1.24658-10.54345,1.19642a.92007.92007,0,0,1-.31018.37988,1.05439,1.05439,0,0,1-.38892.15369,12.369,12.369,0,0,0-2.78931,3.29724.99953.99953,0,1,1-1.72876-1.00379,14.40369,14.40369,0,0,1,2.9563-3.58789,41.52723,41.52723,0,0,1-6.87536-22.58117.946.946,0,0,1,.00439-.29212c.00159-.3811.02051-.78015.04028-1.18017,1.27161.39477,2.56043.73339,3.86548,1.00024a1,1,0,1,0,.40064-1.95947,38.12418,38.12418,0,0,1-4.23633-1.15357,1.08684,1.08684,0,0,1,.19226-.37195c.05078-.43078.12671-.86547.192-1.29834a32.727,32.727,0,0,1,4.11047.71839,1,1,0,1,0,.47241-1.94336,34.617,34.617,0,0,0-4.22717-.74585c.09326-.45166.17664-.90454.28979-1.35278.87574-3.29578,1.65955-6.68177,2.333-10.075,1.54419-7.73278,1.11573-8.89428.86035-9.03466-.51208-.28455-2.2445.66381-2.98462,1.07019a19.584,19.584,0,0,0-2.92175,2.35925l-.22143.194c-1.06531.92444-2.08728,1.879-3.03907,2.84094a.999.999,0,0,1-1.2561.13489,30.41257,30.41257,0,0,0-13.57873-4.73169,1.00051,1.00051,0,0,1-.87891-1.21374,27.3015,27.3015,0,0,0,.62451-7.10914,2.60941,2.60941,0,0,0-.3811-1.547c-.69409-.788-2.467-.02649-3.49085.68139A37.00655,37.00655,0,0,0,85.8316,63.211c-.03625.10254-.06482.19189-.09326.28222A48.07485,48.07485,0,0,0,84.65094,88.271l.00256.19079c.79394.04688,1.56982.10193,2.29614.17651a27.73094,27.73094,0,0,1,9.4386,2.36048c2.42566,1.12842,5.17627,2.40967,5.898,5.162a6.33655,6.33655,0,0,1-2.67346,6.84729c-2.16773,1.21337-4.28076.08874-6.73047-1.21509a26.92659,26.92659,0,0,0-7.1648-2.86988c-8.08264-1.7694-16.82287,1.2616-18.0465,4.89209a3.70534,3.70534,0,0,0,.64233,3.60938c.88452.83435,2.44287.73254,4.38513.51562a14.55989,14.55989,0,0,0,4.41358-1.21228,15.66255,15.66255,0,0,1,2.60632-.89184,12.81859,12.81859,0,0,1,1.50317-.23474l.11206-.00843a15.96157,15.96157,0,0,1,8.35193,2.00269,1.00035,1.00035,0,0,1-.90552,1.78406,14.80127,14.80127,0,0,0-6.54284-1.8169c-.05493.51929-.10767,1.0531-.15113,1.61939-.00537,1.56543-.06762,3.11645-.18823,4.75232A50.033,50.033,0,0,0,86.8283,135.918c2.2345,4.60766,5.01526,10.34057,11.47364,13.8435,6.09289,3.29236,12.34033,2.94568,14.69262,2.81446,3.5221-.20288,7.42395-.43445,11.09034-3.11219A15.61411,15.61411,0,0,0,127.587,146.059a11.84451,11.84451,0,0,0,2.23792-5.45227,12.75227,12.75227,0,0,0-2.46961-9.15466,6.65785,6.65785,0,0,1-5.106,2.95275,7.27185,7.27185,0,0,1-5.36816-1.75952,4.23361,4.23361,0,0,1-1.34778-2.06762.99978.99978,0,0,1,1.93689-.49671,2.34512,2.34512,0,0,0,.75122,1.07947,5.23441,5.23441,0,0,0,5.66394.77258,4.8871,4.8871,0,0,0,2.65247-4.85278,6.21351,6.21351,0,0,0-3.77954-4.56274,11.75009,11.75009,0,0,0-6.62427-.59839,12.42048,12.42048,0,0,0-6.50513,2.91723,6.64421,6.64421,0,0,0-2.17273,6.00562.9996.9996,0,0,1-1.95752.40613,8.64843,8.64843,0,0,1,2.7555-7.86426,14.17128,14.17128,0,0,1,7.56067-3.43848,13.70493,13.70493,0,0,1,7.75561.74414,8.12855,8.12855,0,0,1,4.94959,6.13159,6.45409,6.45409,0,0,1-.21509,2.60267,14.99394,14.99394,0,0,1,3.5011,11.45471,13.67618,13.67618,0,0,1-1.91663,5.29883,8.61593,8.61593,0,0,1,3.76538,1.84216c3.6521,3.14831,3.0907,8.541,2.96424,9.75635-.50538,4.85412-3.78492,10.62524-9.32569,12.15991-4.79846,1.329-9.637-1.01245-10.6239-1.55908-.19617-.10865-.40832-.23267-.63159-.3628-1.14832-.66943-2.71692-1.58825-3.63989-1.24255a1.51758,1.51758,0,0,0-.66748.62915,2.86991,2.86991,0,0,0-.24964,2.93628c1.36621,2.88391,6.92114,5.05444,9.3916,5.36182l.2378.03588c.92541.1941,9.25793,1.796,15.72131-3.98718,5.59143-5.00305,5.88477-12.04407,5.78748-14.47143a29.8098,29.8098,0,0,0-1.67579-7.83741,21.79553,21.79553,0,0,0-1.50622-3.38586,24.13328,24.13328,0,0,0-2.64551-3.91736.99954.99954,0,0,1,.09412-1.37524,15.32922,15.32922,0,0,0,4.7373-7.29773,20.59627,20.59627,0,0,0,.45032-2.56067c.24646-1.87537.47913-3.64685,2.10681-5.07507a7.74275,7.74275,0,0,1,4.55518-1.74878,8.35273,8.35273,0,0,1,3.6134.57861,3.39159,3.39159,0,0,0,2.22217.27405A3.46007,3.46007,0,0,0,156.8847,122.76978ZM94.25346,68.38728A8.34838,8.34838,0,0,1,91.73179,68.22a5.33321,5.33321,0,0,1-3.99227-3.40969,1.00016,1.00016,0,0,1,1.90993-.5945A3.3862,3.3862,0,0,0,92.18721,66.272a8.35771,8.35771,0,0,0,3.96971-.24055,1.0004,1.0004,0,0,1,.49289,1.93914A14.08223,14.08223,0,0,1,94.25346,68.38728Zm12.50739,7.161a5.5218,5.5218,0,0,1-.67851.09327,4.40778,4.40778,0,0,1-3.10468-.85983,4.25387,4.25387,0,0,1-1.16537-1.46732,4.592,4.592,0,0,1-1.54948.51738,4.31374,4.31374,0,0,1-3.3756-.85508.99957.99957,0,1,1,1.262-1.55044,2.3525,2.3525,0,0,0,1.81954.42789,2.2704,2.2704,0,0,0,1.571-.90779,1.00016,1.00016,0,0,1,1.82956.54759,2.24066,2.24066,0,0,0,.2419.94836,2.28764,2.28764,0,0,0,.60859.77186,2.73425,2.73425,0,0,0,2.14259.37415,1,1,0,0,1,.39849,1.96Zm11.42631-1.09852a9.34276,9.34276,0,0,1-1.59447.25831,9.52657,9.52657,0,0,1-3.95483-.53621,5.0192,5.0192,0,0,1-3.48572-3.40675,1.00031,1.00031,0,1,1,1.95357-.4313,3.16574,3.16574,0,0,0,2.21,1.95657,7.54029,7.54029,0,0,0,4.3805.2201,1.00023,1.00023,0,1,1,.491,1.93928Z"></path></g></g></svg></g></svg>