<svg xmlns="http://www.w3.org/2000/svg" xmlns:xlink="http://www.w3.org/1999/xlink" width="100" height="100" viewBox="0 0 100 100"><circle stroke="none" fill="#000000" r="48%" cx="50%" cy="50%"></circle><g transform="translate(50 50) scale(0.69 0.69) rotate(0) translate(-50 -50)" style="fill:#ffffff"><svg fill="#ffffff" xmlns="http://www.w3.org/2000/svg" xmlns:xlink="http://www.w3.org/1999/xlink" version="1.1" x="0px" y="0px" viewBox="0 0 100 100" style="enable-background:new 0 0 100 100;" xml:space="preserve"><g><path d="M50,5C25.187,5,5,25.187,5,50s20.187,45,45,45s45-20.187,45-45S74.813,5,50,5z M50,91C27.393,91,9,72.607,9,50   S27.393,9,50,9s41,18.393,41,41S72.607,91,50,91z"></path><path d="M60.615,57.947c-1.195-0.52-2.515-2.738-3.291-4.705c-0.98-2.485-2.756-5.796-6.872-6.05   c-0.116-0.025-0.259-0.025-0.349-0.017c-0.023-0.001-0.123-0.006-0.146-0.006c-0.072,0-0.142,0.008-0.209,0.022   c-4.117,0.252-5.896,3.564-6.877,6.05c-0.775,1.967-2.094,4.185-3.29,4.705c-3.816,1.66-6.105,5.676-5.567,9.768   c0.491,3.729,3.204,6.406,7.082,6.987c1.672,0.253,3.472,0.021,5.058-0.646c0.517-0.216,0.991-0.471,1.45-0.718   c0.87-0.467,1.625-0.872,2.494-0.958c0.869,0.087,1.625,0.492,2.495,0.959c0.458,0.246,0.933,0.501,1.447,0.717   c1.164,0.489,2.442,0.747,3.697,0.747c0.457,0,0.915-0.034,1.362-0.101c3.878-0.581,6.591-3.259,7.081-6.987   C66.72,63.623,64.431,59.606,60.615,57.947z"></path><path d="M36.666,55.184c0.91-1.337,1.221-3.164,0.852-5.01c-0.651-3.26-3.205-5.546-5.838-5.079c-1.053,0.19-1.994,0.825-2.65,1.79   c-0.91,1.337-1.222,3.164-0.853,5.011c0.595,2.978,2.764,5.139,5.157,5.139c0.227,0,0.454-0.02,0.682-0.061   C35.068,56.785,36.01,56.149,36.666,55.184z"></path><path d="M42.72,45.437c0.104,0,0.209-0.004,0.314-0.013c2.747-0.227,4.665-3.253,4.367-6.891c-0.299-3.614-2.666-6.312-5.435-6.083   c-1.374,0.113-2.584,0.937-3.406,2.321c-0.757,1.275-1.099,2.898-0.961,4.569C37.886,42.815,40.087,45.437,42.72,45.437z"></path><path d="M68.32,45.096c-2.629-0.467-5.188,1.818-5.838,5.079c-0.369,1.846-0.059,3.672,0.852,5.01   c0.656,0.965,1.598,1.601,2.65,1.791c0.228,0.041,0.455,0.061,0.682,0.061c0,0,0,0,0.001,0c2.393,0,4.562-2.161,5.156-5.139   c0.369-1.847,0.058-3.673-0.853-5.011C70.314,45.921,69.373,45.286,68.32,45.096z"></path><path d="M57.28,45.437c2.633,0,4.834-2.622,5.12-6.097c0.138-1.671-0.204-3.294-0.961-4.569c-0.822-1.384-2.032-2.208-3.406-2.321   c-2.762-0.228-5.136,2.47-5.435,6.083c-0.298,3.638,1.62,6.664,4.367,6.891C57.071,45.433,57.176,45.437,57.28,45.437z"></path><path d="M74.517,40.099v-4.603c0-1.104-0.896-2-2-2s-2,0.896-2,2v2.731c-0.37-0.083-0.748-0.146-1.133-0.187   c-0.106-0.012-0.213-0.021-0.32-0.03c0.009-0.195,0.014-0.389,0.014-0.583c0-5.399-3.125-9.992-7.468-11.697v-4.319   c0-1.104-0.896-2-2-2s-2,0.896-2,2v3.621c-2.88,0.084-5.604,1.402-7.609,3.628c-1.818-2.016-4.226-3.282-6.805-3.568v-3.681   c0-1.104-0.896-2-2-2s-2,0.896-2,2v4.041c-4.757,1.427-8.272,6.247-8.272,11.975c0,0.193,0.005,0.388,0.014,0.583   c-0.106,0.008-0.211,0.018-0.316,0.029c-0.395,0.042-0.782,0.109-1.162,0.195V35.08c0-1.104-0.896-2-2-2s-2,0.896-2,2v5.041   c-3.2,2.447-5.107,6.715-4.653,11.339V72.5c0,1.104,0.896,2,2,2s2-0.896,2-2V51.358c0-0.07-0.004-0.141-0.011-0.211   c-0.49-4.614,2.313-8.709,6.254-9.129c0.591-0.065,1.16-0.044,1.83,0.083c0.664,0.126,1.349-0.095,1.817-0.584   c0.467-0.49,0.655-1.183,0.499-1.842c-0.181-0.759-0.271-1.514-0.271-2.245c0-4.641,3.222-8.416,7.181-8.416   c2.509,0,4.798,1.516,6.124,4.055c0.002,0.004,0.005,0.007,0.007,0.011c0.047,0.089,0.106,0.172,0.167,0.253   c0.019,0.025,0.033,0.054,0.052,0.078c0.039,0.047,0.086,0.087,0.13,0.13c0.05,0.05,0.096,0.105,0.15,0.149   c0.02,0.016,0.044,0.028,0.065,0.044c0.085,0.064,0.173,0.126,0.266,0.175c0.004,0.002,0.007,0.005,0.01,0.007   c0.035,0.019,0.073,0.027,0.109,0.044c0.08,0.036,0.159,0.072,0.243,0.097c0.062,0.019,0.124,0.027,0.186,0.039   c0.064,0.013,0.127,0.029,0.192,0.035c0.069,0.007,0.137,0.004,0.206,0.003c0.061,0,0.12,0.003,0.181-0.003   c0.073-0.007,0.144-0.024,0.216-0.039c0.055-0.011,0.109-0.018,0.163-0.035c0.091-0.027,0.178-0.066,0.264-0.106   c0.03-0.014,0.061-0.021,0.09-0.036c0.003-0.002,0.006-0.004,0.009-0.006c0.102-0.054,0.198-0.119,0.289-0.19   c0.013-0.01,0.029-0.018,0.042-0.028c0.063-0.051,0.117-0.113,0.173-0.172c0.035-0.036,0.075-0.069,0.106-0.107   c0.022-0.027,0.039-0.06,0.06-0.089c0.057-0.079,0.114-0.157,0.159-0.243c0.002-0.004,0.005-0.007,0.007-0.011   c1.326-2.539,3.615-4.055,6.124-4.055c3.959,0,7.181,3.775,7.181,8.416c0,0.73-0.091,1.486-0.271,2.245   c-0.156,0.659,0.032,1.352,0.499,1.842c0.468,0.49,1.152,0.71,1.817,0.584c0.67-0.126,1.232-0.147,1.834-0.082   c3.937,0.419,6.74,4.515,6.25,9.129c-0.007,0.07-0.011,0.141-0.011,0.211V72.5c0,1.104,0.896,2,2,2s2-0.896,2-2V51.46   C79.651,46.823,77.732,42.541,74.517,40.099z"></path></g></svg></g></svg>