<svg xmlns="http://www.w3.org/2000/svg" xmlns:xlink="http://www.w3.org/1999/xlink" width="100" height="100" viewBox="0 0 100 100"><circle stroke="none" fill="#000000" r="48%" cx="50%" cy="50%"></circle><g transform="translate(50 50) scale(0.69 0.69) rotate(0) translate(-50 -50)" style="fill:#ffffff"><svg fill="#ffffff" xmlns="http://www.w3.org/2000/svg" viewBox="0 0 161.19797 185.28167" x="0px" y="0px"><title>sleepy_cats_10</title><g data-name="Layer 2"><g data-name="Layer 1"><path d="M161.177,128.37339a7.24,7.24,0,0,0-2.6123-4.458,11.37678,11.37678,0,0,0-5.042-2.59571,9.55184,9.55184,0,0,0-2.94434-.1582c-.31836.03125-.61914.08008-.91113.13477a13.34271,13.34271,0,0,0,1.71973-7.87891,9.9028,9.9028,0,0,0-4.14356-7.49414,9.46168,9.46168,0,0,0-5.958-1.21192,13.64426,13.64426,0,0,0-6.33691,2.38477,40.47077,40.47077,0,0,1-6.80469-18.25684c-.05078-.5166-.07422-1.04882-.10156-1.5791a19.84629,19.84629,0,0,0,3.39062.85742,1.00007,1.00007,0,0,0,.3125-1.97558,17.79445,17.79445,0,0,1-3.74414-1.03028c.00293-.31738-.00976-.627.00293-.94824.00782-.20508.02735-.40136.03809-.60351.81836-.01172,1.63672-.04492,2.45019-.125q.80274-.07911,1.60059-.20215a1,1,0,1,0-.30469-1.97656q-.74413.11571-1.49121.18847c-.69238.06836-1.38769.09961-2.083.11426a35.27016,35.27016,0,0,1,.64258-3.80078c.60547-2.51953,1.38281-6.01074,2.1211-10.21777.40039-2.28516.666-4.07325.81543-5.48829a16.91192,16.91192,0,0,0,.10449-3.27832,4.08092,4.08092,0,0,0-.374-1.44531,2.17435,2.17435,0,0,0-.93261-.96387,2.53647,2.53647,0,0,0-1.44727-.248,5.88051,5.88051,0,0,0-1.875.583c-.584.27539-1.13183.5957-1.59375.86328a8.21172,8.21172,0,0,0-1.27539.9375c-.48926.42187-1.12012,1.002-2.13281,1.92187-.86719.78809-1.70313,1.6084-2.51953,2.44629a32.44355,32.44355,0,0,0-12.80274-4.19629,29.28575,29.28575,0,0,0,.31739-6.56738l-.001-.00586c-.00781-.11719-.01758-.24316-.03125-.377a3.95938,3.95938,0,0,0-.90332-2.36426,2.9329,2.9329,0,0,0-1.29883-.82422,3.58078,3.58078,0,0,0-1.418-.126,7.42723,7.42723,0,0,0-3.40722,1.42969,39.198,39.198,0,0,0-14.5752,18.64258q-.98291-3.10693-1.96387-6.21289l-.01074-.03028a45.164,45.164,0,0,0-5.53906-10.18652A7.3639,7.3639,0,0,0,77.0832,50.85a3.51256,3.51256,0,0,0-.85742-.58106,2.357,2.357,0,0,0-1.1914-.22656l-.042.00293a2.7081,2.7081,0,0,0-1.72168.91113,5.55978,5.55978,0,0,0-.88085,1.35059,24.12755,24.12755,0,0,0-2.18653,7.32422c-.51953.03808-1.042.07129-1.55273.12109A88.58172,88.58172,0,0,0,50.60371,63.849a60.107,60.107,0,0,0-6.91211-6.13672,7.82708,7.82708,0,0,0-1.37109-.8584,3.49591,3.49591,0,0,0-1.82129-.3623A2.70664,2.70664,0,0,0,39.84,56.64a2.163,2.163,0,0,0-1.13184.97265,4.66924,4.66924,0,0,0-.53125,1.94922,14.71494,14.71494,0,0,0-.0039,2.06445v-.00293c.01758.30274.041.60743.07129.91211.39551,3.98242,1.78906,8.251,3.16894,12.627.915,2.8916,1.81836,5.82714,2.45215,8.72558-.34766.04688-.69433.09863-1.04394.13281a28.61084,28.61084,0,0,1-3.03321.1377,1,1,0,0,0-.01562,2,30.78108,30.78108,0,0,0,3.24511-.14746c.41114-.04.82032-.09961,1.2295-.15625q.12012.69726.21093,1.38867a21.88592,21.88592,0,0,1-3.75585.93359,1,1,0,0,0,.30468,1.97657,23.67913,23.67913,0,0,0,3.65137-.86426,34.615,34.615,0,0,1-1.15234,10.7998,55.91143,55.91143,0,0,1-2.67383,7.65625,48.99192,48.99192,0,0,1-2.36817,4.92774,10.32113,10.32113,0,0,0-3.34179-3.2793,16.40947,16.40947,0,0,0-3.27735-1.49121,16.97207,16.97207,0,0,0-6.74414-.72754A12.91076,12.91076,0,0,0,17.55,110.44273a12.45444,12.45444,0,0,0-3.7334,6.29785,15.0778,15.0778,0,0,0-.41894,4.21777c-.23145-.12695-.47461-.2539-.73926-.37793A10.48151,10.48151,0,0,0,7.22578,119.555a8.8842,8.8842,0,0,0-1.39843.252A11.231,11.231,0,0,0,3.01,120.94761a7.03484,7.03484,0,0,0-1.80371,1.47949,4.95191,4.95191,0,0,0-1.13281,2.38672,5.13143,5.13143,0,0,0-.04688,1.3916,6.06418,6.06418,0,0,0,.97754,2.72266,5.35559,5.35559,0,0,0,2.10645,1.89453,3.65242,3.65242,0,0,0,1.18359.35156,4.92632,4.92632,0,0,0,1.04492-.01269c.21289-.02051.42188-.0459.64356-.06738a10.56552,10.56552,0,0,1,2.74121.08105,19.10456,19.10456,0,0,1,3.92187,1.0459,21.93746,21.93746,0,0,1,2.668,1.19141,49.63052,49.63052,0,0,0,6.01172,10.52343l-.02051.07715a3.521,3.521,0,0,1,.33545.28058,26.81062,26.81062,0,0,0-4.38037,21.217c.59986,2.78137,1.8877,8.79382,7.48291,13.40381a22.29025,22.29025,0,0,0,11.45386,4.80438,24.83975,24.83975,0,0,0,3.14111.19361c3.25611-.00519,8.29224-.5918,12.35352-3.92994A17.41582,17.41582,0,0,0,53.83369,177.93a8.8138,8.8138,0,0,0,1.14942-1.66192,4.47964,4.47964,0,0,0,.54956-2.0426,3.28538,3.28538,0,0,0-.14551-.97352l-.00122-.00384a3.64059,3.64059,0,0,0-.91553-1.47742,3.86035,3.86035,0,0,0-1.489-.92615,3.29183,3.29183,0,0,0-1.04541-.17211,3.92241,3.92241,0,0,0-1.52686.33612,15.06631,15.06631,0,0,0-2.05469,1.16327,21.64336,21.64336,0,0,1-2.41333,1.356,16.36153,16.36153,0,0,1-6.66381,1.52027,12.82881,12.82881,0,0,1-2.10718-.171,12.57554,12.57554,0,0,1-5.89746-2.68567,12.143,12.143,0,0,1-3.48316-4.90668,13.01277,13.01277,0,0,1-.93066-4.89923,16.17034,16.17034,0,0,1,1.06592-5.655,7.35559,7.35559,0,0,0,.99926-.01935,7.58142,7.58142,0,0,0,.99512-.165,16.97515,16.97515,0,0,0,3.17676-1.12012,6.05266,6.05266,0,0,1,1.81445-.6211,2.7674,2.7674,0,0,1,.88477.06348,1.92741,1.92741,0,0,1,.85644.40918A8.19557,8.19557,0,0,1,37.925,156.849a17.15012,17.15012,0,0,0,2.20117,2.61426,17.89819,17.89819,0,0,0,7.88086,4.21093,18.29221,18.29221,0,0,0,6.66992.53907,28.03659,28.03659,0,0,0,7.93555-2.17578,29.65648,29.65648,0,0,0,10.09082-6.95118,25.40783,25.40783,0,0,0,3.30762-4.31836,46.54731,46.54731,0,0,0,4.29394-9.33984,67.173,67.173,0,0,0,2.63868-10.13965,50.55182,50.55182,0,0,0,4.6748,13.666,48.29027,48.29027,0,0,0,4.6543,7.72265,23.60642,23.60642,0,0,0,8.00293,6.71387,29.02412,29.02412,0,0,0,15.82324,2.69238c.58789-.04687,1.19922-.09472,1.82715-.15625a19.008,19.008,0,0,0,10.24219-3.61328,18.15267,18.15267,0,0,0,3.291-3.1748l.02344.00683a7.12023,7.12023,0,0,1,3.74219,1.47364,6.03606,6.03606,0,0,1,1.75488,2.39258,9.05168,9.05168,0,0,1,.624,2.60839,16.93576,16.93576,0,0,1,.0625,1.84375,14.74109,14.74109,0,0,1-2.1123,7.22461,9.5008,9.5008,0,0,1-5.4375,4.50489,9.65124,9.65124,0,0,1-1.54981.26953,14.05388,14.05388,0,0,1-7.65722-1.419c-.59082-.3125-1.37793-.78906-2.24024-1.18164a5.76323,5.76323,0,0,0-2.86523-.62988,3.19951,3.19951,0,0,0-.87891.21289,3.374,3.374,0,0,0-1.61523,1.46094,5.07126,5.07126,0,0,0-.77637,3.13965,5.7658,5.7658,0,0,0,1.66309,3.34667,14.95237,14.95237,0,0,0,4.98437,3.23536,18.54428,18.54428,0,0,0,4.96094,1.39257c.03906.00293.28711.03907.61328.07911a24.71571,24.71571,0,0,0,5.37207.0664,19.17193,19.17193,0,0,0,11.45508-4.99609,17.97229,17.97229,0,0,0,5.19043-9.2832,27.87978,27.87978,0,0,0,.55078-7.19336v-.00293c-.01172-.36231-.03613-.88477-.09961-1.5293a25.58069,25.58069,0,0,0-1.54688-6.55176A25.93374,25.93374,0,0,0,141.591,148.515a16.649,16.649,0,0,0,4.47656-7.7168c.38379-1.62305.42383-3.0293.60352-4.13086a5.79852,5.79852,0,0,1,.38867-1.43457,3.27627,3.27627,0,0,1,.80664-1.11914,5.03206,5.03206,0,0,1,1.92383-1.05176,7.216,7.216,0,0,1,1.36132-.27734h.00684l.05957-.00684a5.99832,5.99832,0,0,1,2.59277.33887c.39258.123.79786.26367,1.25489.36914a4.69844,4.69844,0,0,0,1.52343.11328,4.51089,4.51089,0,0,0,.86231-.17285,5.62158,5.62158,0,0,0,2.2793-1.3711,4.88036,4.88036,0,0,0,1.35351-2.28808A4.17524,4.17524,0,0,0,161.177,128.37339ZM82.07637,116.931l-.02344.12891.001.20019c-.08594,1.47949-.1211,3.10742-.08106,4.84571a67.02369,67.02369,0,0,1-3.55761,18.667,44.59158,44.59158,0,0,1-4.1045,8.9414,23.32917,23.32917,0,0,1-3.05371,3.99024,27.65691,27.65691,0,0,1-9.39551,6.47949,26.08833,26.08833,0,0,1-7.37988,2.03809,16.273,16.273,0,0,1-5.94531-.47657,15.92672,15.92672,0,0,1-7.02734-3.72754,19.38979,19.38979,0,0,1-2.45215-3.02441,6.71609,6.71609,0,0,0-1.1377-1.26269,3.95128,3.95128,0,0,0-1.69433-.81543,4.77974,4.77974,0,0,0-1.50977-.10059,7.78508,7.78508,0,0,0-2.43262.78418,14.9836,14.9836,0,0,1-2.82519,1.001,5.63208,5.63208,0,0,1-3.37207-.252,3.42333,3.42333,0,0,1-1.76172-1.51367,2.71953,2.71953,0,0,1-.30859-1.02344,3.99652,3.99652,0,0,1,.81445-2.64355,5.43565,5.43565,0,0,1,2.4375-1.91211,7.79014,7.79014,0,0,1,1.998-.45508,17.04682,17.04682,0,0,1,6.20214.85156,1.00017,1.00017,0,0,0,1.09473-1.53613,7.1556,7.1556,0,0,1-1.24121-3.43457,8.77836,8.77836,0,0,1,1.94043-6.33887,11.6189,11.6189,0,0,1,7.832-3.88867,13.47553,13.47553,0,0,1,2.14648-.03906,18.38606,18.38606,0,0,1,10.36329,4.41406.99979.99979,0,1,0,1.27539-1.54,20.352,20.352,0,0,0-11.51368-4.86914,15.30359,15.30359,0,0,0-2.46679.044,13.59813,13.59813,0,0,0-9.17774,4.60449,10.7659,10.7659,0,0,0-2.38965,7.80859,9.5438,9.5438,0,0,0,.51758,2.30469,15.625,15.625,0,0,0-4.77832-.37109,9.7207,9.7207,0,0,0-2.51172.57617,7.4167,7.4167,0,0,0-3.35839,2.62305,5.97085,5.97085,0,0,0-1.17481,3.998,4.72065,4.72065,0,0,0,.53223,1.76563,5.16688,5.16688,0,0,0,2.00488,2.02051,1.95673,1.95673,0,0,1,.46484.23339l.02246.01368c.09961.03808.2002.07617.24805.09179.1355.04383.40723.1164.64282.1977a18.117,18.117,0,0,0-1.08081,6.05572,15.00194,15.00194,0,0,0,1.07618,5.64838,14.14739,14.14739,0,0,0,4.05371,5.691,14.55992,14.55992,0,0,0,6.853,3.12506,14.82688,14.82688,0,0,0,2.43531.198,18.32364,18.32364,0,0,0,7.50976-1.70789,30.42679,30.42679,0,0,0,3.3064-1.89685,8.39277,8.39277,0,0,1,1.08984-.59064,1.94479,1.94479,0,0,1,.75269-.1803,1.28348,1.28348,0,0,1,.41333.06971,1.86692,1.86692,0,0,1,.71069.44677,1.65448,1.65448,0,0,1,.41651.65534,1.29294,1.29294,0,0,1,.05639.38129,2.52954,2.52954,0,0,1-.32666,1.125,8.19917,8.19917,0,0,1-1.43408,1.86682,17.49591,17.49591,0,0,1-1.35425,1.223c-3.48047,2.8858-8.05566,3.47742-11.08008,3.47223a22.84584,22.84584,0,0,1-2.88769-.17755,20.29892,20.29892,0,0,1-10.43482-4.36353c-5.03393-4.15381-6.207-9.53394-6.80053-12.2832a24.73378,24.73378,0,0,1,4.56909-20.33094.99142.99142,0,0,0-.52222-1.56695,47.51609,47.51609,0,0,1-7.53-14.44293,1.00021,1.00021,0,0,0-1.90722.60351c.1455.46.30859.91407.46777,1.36914-.30469-.12695-.62207-.25293-.95606-.376a21.04337,21.04337,0,0,0-4.32519-1.14746,12.67321,12.67321,0,0,0-3.22461-.09375c-.249.02539-.46289.05078-.64258.06836a2.97958,2.97958,0,0,1-.625.01562,1.60994,1.60994,0,0,1-.542-.167,3.376,3.376,0,0,1-1.30371-1.19336,4.08966,4.08966,0,0,1-.65723-1.81641,3.19609,3.19609,0,0,1,.02735-.85547l.001-.00195a2.95214,2.95214,0,0,1,.6875-1.43164,5.7954,5.7954,0,0,1,2.02051-1.42578,9.901,9.901,0,0,1,1.585-.55469,6.81979,6.81979,0,0,1,1.085-.19433,8.47711,8.47711,0,0,1,4.38965.84667,10.82168,10.82168,0,0,1,2.18945,1.35254.99957.99957,0,0,0,1.60547-1.00195,9.4784,9.4784,0,0,1-.1582-1.06641A13.35549,13.35549,0,0,1,15.757,117.225a10.44329,10.44329,0,0,1,3.13867-5.30176,10.89783,10.89783,0,0,1,6.4004-2.75781,15.10919,15.10919,0,0,1,5.87792.62109,14.48475,14.48475,0,0,1,2.9004,1.31055,7.996,7.996,0,0,1,3.07421,3.2539,7.497,7.497,0,0,1,.72754,2.58106c.02539.26465.03614.50781.03907.72265a1.00009,1.00009,0,0,0,2-.02636c-.00391-.25879-.01563-.55957-.04883-.89258a9.88143,9.88143,0,0,0-.373-1.8418l.02149-.02344h-.001a50.9408,50.9408,0,0,0,3.167-6.36035,57.93594,57.93594,0,0,0,2.76074-7.918,35.94831,35.94831,0,0,0,1.14453-12.42382l-.001-.002-.00586-.05957a68.27206,68.27206,0,0,0-3.25879-13.54687C41.93379,70.18,40.591,65.99937,40.23457,62.33921q-.041-.41894-.06445-.82714v-.00293a10.20749,10.20749,0,0,1,.0625-2.26075,2.00678,2.00678,0,0,1,.20019-.624c.07129-.11328.084-.09961.083-.10254l.17871-.04a1.55344,1.55344,0,0,1,.7793.1836,5.88228,5.88228,0,0,1,1.00977.6416A58.01945,58.01945,0,0,1,49.593,65.67222a1.00072,1.00072,0,0,0,1.02539.2666c6.248-1.96191,11.93848-3.57812,18.22754-4.19531q1.13087-.11133,2.29-.17871a1.00061,1.00061,0,0,0,.9375-.90137A22.11072,22.11072,0,0,1,74.18867,53.181a3.67282,3.67282,0,0,1,.54981-.86621.72291.72291,0,0,1,.45019-.27832l.00293-.001h.00391a.3768.3768,0,0,1,.18652.04688,2.027,2.027,0,0,1,.56934.458,6.62731,6.62731,0,0,1,.53613.67578,46.37184,46.37184,0,0,1,4.02637,6.78515c.43066.89453.74707,1.626.95312,2.13086.10352.252.17871.44727.22852.57813l.05469.14648.01074.03223q1.32129,4.1748,2.64062,8.34961a.99464.99464,0,0,0,.208.36035,48.64174,48.64174,0,0,0-1.60644,18.21094,53.564,53.564,0,0,0,1.11718,6.78613,66.15762,66.15762,0,0,0-6.999.31738q-1.15722.1128-2.376.27539A1,1,0,1,0,75.01,99.17125q1.18359-.1582,2.30664-.26758A63.45269,63.45269,0,0,1,88.29317,98.763a25.56194,25.56194,0,0,1,8.83886,1.97559,19.398,19.398,0,0,1,3.25684,1.67285,3.83845,3.83845,0,0,1,1.6416,2.07715,3.66979,3.66979,0,0,1,.12109.64844,4.82878,4.82878,0,0,1-.376,2.3291,3.50125,3.50125,0,0,1-1.36328,1.66015,1.94317,1.94317,0,0,1-.8252.27735,3.85083,3.85083,0,0,1-1.7168-.333c-1.05859-.40137-2.39062-1.15527-4.03222-1.93066a25.12322,25.12322,0,0,0-6.00391-2.03223,25.72192,25.72192,0,0,0-7.36426-.31152,23.2948,23.2948,0,0,0-8.17187,2.25585,12.17417,12.17417,0,0,0-2.95313,2.05079,6.482,6.482,0,0,0-1.7373,2.68457,6.10659,6.10659,0,0,0-.22754,2.38769,5.05112,5.05112,0,0,0,1.52344,3.27832,4.39424,4.39424,0,0,0,2.32031,1.05176,9.70125,9.70125,0,0,0,2.43164.01465c.42578-.042.8457-.09766,1.252-.15235a15.50537,15.50537,0,0,0,4.24512-1.16992,18.96414,18.96414,0,0,1,2.94434-1.13769l.03906-.00879C82.11348,116.33628,82.09492,116.63511,82.07637,116.931Zm77.06348,12.36426a2.90714,2.90714,0,0,1-.81055,1.333,3.64612,3.64612,0,0,1-1.457.88281,2.54192,2.54192,0,0,1-.47852.09766,2.70447,2.70447,0,0,1-.88281-.07227c-.47461-.10547-1.04688-.333-1.78125-.52637a7.48369,7.48369,0,0,0-2.707-.22265l-.09082.00976a9.1683,9.1683,0,0,0-1.73242.35352,7.03292,7.03292,0,0,0-2.68555,1.48926,5.30329,5.30329,0,0,0-1.28223,1.78222,9.769,9.769,0,0,0-.66406,2.90137,24.322,24.322,0,0,1-.44531,3.01269,14.994,14.994,0,0,1-4.56836,7.40528.99747.99747,0,0,0-.06348,1.37695,24.09279,24.09279,0,0,1,4.31738,7.20117,23.58428,23.58428,0,0,1,1.42579,6.03711c.05761.59082.08007,1.06446.09082,1.40039v-.00293a25.9513,25.9513,0,0,1-.50293,6.69239,15.96009,15.96009,0,0,1-4.61231,8.26953,17.17581,17.17581,0,0,1-10.27734,4.46,22.71686,22.71686,0,0,1-3.73535.05176c-.48633-.03321-.89161-.07618-1.19922-.11329-.31446-.03808-.502-.06835-.65332-.084a17.982,17.982,0,0,1-6.01172-2.03027,10.86623,10.86623,0,0,1-2.67676-1.97559,3.80438,3.80438,0,0,1-1.13281-2.17383,3.07722,3.07722,0,0,1,.50293-1.917,1.38267,1.38267,0,0,1,.64941-.63379,1.145,1.145,0,0,1,.32422-.07715,3.93657,3.93657,0,0,1,1.84375.46094c.72363.32715,1.46484.77246,2.127,1.126a16.0249,16.0249,0,0,0,8.793,1.64453,11.844,11.844,0,0,0,1.8711-.32813,11.4772,11.4772,0,0,0,6.63183-5.40234,16.7229,16.7229,0,0,0,2.40039-8.24121,18.61469,18.61469,0,0,0-.07226-2.0586,11.09215,11.09215,0,0,0-.76856-3.18457,8.05994,8.05994,0,0,0-2.335-3.168,8.75211,8.75211,0,0,0-3.792-1.75684,13.57871,13.57871,0,0,0,1.80566-8.21289,15.52,15.52,0,0,0-3.78515-8.50684,6.50849,6.50849,0,0,0,.20019-2.26855c-.01172-.11231-.02539-.22363-.042-.33594a7.22971,7.22971,0,0,0-1.77637-3.66113,9.12449,9.12449,0,0,0-3.3125-2.35352,12.89288,12.89288,0,0,0-6.22851-.791c-.51953.05175-1.03418.126-1.54.21972a14.23567,14.23567,0,0,0-7.47754,3.61036,8.884,8.884,0,0,0-2.72852,7.01855,7.05211,7.05211,0,0,0,.14844.90723,1.00038,1.00038,0,0,0,1.94922-.45118h-.001a5.129,5.129,0,0,1-.10644-.65234,6.907,6.907,0,0,1,2.14551-5.40039,12.27436,12.27436,0,0,1,6.43457-3.06641c.45312-.083.91211-.14941,1.37109-.19531a10.91873,10.91873,0,0,1,5.26367.64746,7.127,7.127,0,0,1,2.583,1.83106,5.22816,5.22816,0,0,1,1.29785,2.64062l.0293.22754a4.72984,4.72984,0,0,1-.57813,2.7002,4.72672,4.72672,0,0,1-3.78222,2.51269,5.2449,5.2449,0,0,1-3.88965-1.16894,2.39911,2.39911,0,0,1-.78125-1.07129,1,1,0,1,0-1.92188.55371,4.34959,4.34959,0,0,0,1.39356,2.0293,7.23058,7.23058,0,0,0,5.39551,1.64746,6.89968,6.89968,0,0,0,2.53027-.74512,6.79108,6.79108,0,0,0,2.5166-2.33887,13.37857,13.37857,0,0,1,2.70215,6.65625,11.637,11.637,0,0,1-.01856,2.44922,11.9829,11.9829,0,0,1-2.55468,6.09082,16.02762,16.02762,0,0,1-2.98828,2.88867,17.02584,17.02584,0,0,1-9.22168,3.21094c-.60352.05859-1.2002.10645-1.78907.15234a27.05346,27.05346,0,0,1-14.7539-2.47851,21.57746,21.57746,0,0,1-7.334-6.15918,46.33942,46.33942,0,0,1-4.45605-7.41113A49.4967,49.4967,0,0,1,84.216,126.1771c-.13867-1.4082-.21094-2.75878-.24219-4.05078.07519-1.541.10644-3.13965.08008-4.80273.03125-.53223.07031-1.03906.11133-1.53223a14.55279,14.55279,0,0,1,6.583,1.665,1,1,0,1,0,.86426-1.80371,15.75519,15.75519,0,0,0-8.40039-1.81055,10.92228,10.92228,0,0,0-1.60351.27832,20.58734,20.58734,0,0,0-3.23829,1.23633,13.47387,13.47387,0,0,1-3.72949,1.0293c-.40234.05371-.79785.10547-1.18066.14258a7.80609,7.80609,0,0,1-1.92481.001,2.40368,2.40368,0,0,1-1.29-.55957,3.08728,3.08728,0,0,1-.875-1.99023,4.13857,4.13857,0,0,1,.14649-1.59668,4.51143,4.51143,0,0,1,1.22265-1.84668,12.06742,12.06742,0,0,1,4.08594-2.41895,22.92266,22.92266,0,0,1,5.84082-1.33105,23.71557,23.71557,0,0,1,6.78614.28516,26.12015,26.12015,0,0,1,7.02539,2.61035c.95117.47851,1.82031.92773,2.67773,1.25683a5.77693,5.77693,0,0,0,2.627.45508,3.976,3.976,0,0,0,1.64844-.5459,5.48246,5.48246,0,0,0,2.18164-2.59082,6.8226,6.8226,0,0,0,.5293-3.3164,5.66338,5.66338,0,0,0-.18945-1.00489,5.83421,5.83421,0,0,0-2.415-3.16211,21.07868,21.07868,0,0,0-3.60157-1.86621A27.55066,27.55066,0,0,0,88.4416,96.7689c-.706-.05273-1.47363-.09863-2.29785-.12988l-.00586-.18848h-.001a51.56469,51.56469,0,0,1-1.14356-6.83594,46.5294,46.5294,0,0,1,1.669-17.95312,37.10414,37.10414,0,0,1,14.708-20.20117,5.5632,5.5632,0,0,1,2.43555-1.0625,1.60255,1.60255,0,0,1,.62891.0459.90255.90255,0,0,1,.416.26562,2.07578,2.07578,0,0,1,.38867,1.208c.01075.10156.01856.21094.02735.32715l-.001-.00586a27.24342,27.24342,0,0,1-.46094,7.123,1.00073,1.00073,0,0,0,.90723,1.19239,30.42635,30.42635,0,0,1,13.67969,4.417.99922.99922,0,0,0,1.251-.16211q1.43117-1.50587,2.96973-2.90723c1.01367-.92187,1.64649-1.502,2.0918-1.88476a6.12063,6.12063,0,0,1,.97656-.72461c.459-.26758.96191-.55859,1.44043-.7832a4.039,4.039,0,0,1,1.21875-.40235.59411.59411,0,0,1,.32324.0293c.02539.01953.01953-.00293.07617.09668a2.17057,2.17057,0,0,1,.168.7373,15.16068,15.16068,0,0,1-.10351,2.873c-.14063,1.34277-.40039,3.09375-.7959,5.35156-.73145,4.16309-1.499,7.61621-2.09863,10.10645l-.002.01074a36.991,36.991,0,0,0-.75488,4.68262.90021.90021,0,0,0-.0791,1.02343c-.02442.35547-.05371.70606-.06836,1.06934-.0166.45313-.00391.89258-.00391,1.33789a.99118.99118,0,0,0-.00293.69141c.01856.99219.0625,1.96972.15625,2.918a42.50658,42.50658,0,0,0,7.2295,19.32129,14.472,14.472,0,0,0-2.87793,3.63867.99988.99988,0,1,0,1.75.96777,12.4135,12.4135,0,0,1,2.68261-3.32715.98989.98989,0,0,0,.43946-.16113.97527.97527,0,0,0,.34179-.4707,11.7085,11.7085,0,0,1,5.76075-2.30078,7.48525,7.48525,0,0,1,4.69433.9121,7.944,7.944,0,0,1,3.22168,5.99805,11.61553,11.61553,0,0,1-3.11621,8.96875.99955.99955,0,0,0,1.19531,1.5625,9.35138,9.35138,0,0,1,3.29785-.99219,7.54371,7.54371,0,0,1,2.332.124,9.40518,9.40518,0,0,1,4.13085,2.13476,5.33957,5.33957,0,0,1,1.9502,3.15918A2.122,2.122,0,0,1,159.13985,129.29527Z"></path><path d="M60.68184,76.556a8.24887,8.24887,0,0,0-4.085-.63574,7.998,7.998,0,0,0-6.06055,3.80078,1.00044,1.00044,0,0,0,1.71582,1.0293,5.98986,5.98986,0,0,1,4.54-2.83985,6.237,6.237,0,0,1,3.08789.47852,1.00034,1.00034,0,0,0,.80176-1.833Z"></path><path d="M72.57051,75.432a1.001,1.001,0,0,0,1.30176-.55469h-.001a2.13438,2.13438,0,0,1,1.248-1.07324,5.27984,5.27984,0,0,1,1.376-.29492c.25977-.02539.5293-.041.80567-.05176a7.69246,7.69246,0,0,1,1.792.09668,2.41522,2.41522,0,0,1,1.23926.582,1,1,0,0,0,1.39062-1.4375,4.3965,4.3965,0,0,0-2.23633-1.10547,9.62613,9.62613,0,0,0-2.26562-.13477c-.29883.0127-.60645.0293-.9209.06055a7.2277,7.2277,0,0,0-1.89746.418,4.09363,4.09363,0,0,0-2.38672,2.19434A.99954.99954,0,0,0,72.57051,75.432Z"></path><path d="M98.36348,74.642a1.00111,1.00111,0,0,0-1.23535-.68848,11.70016,11.70016,0,0,1-2.04395.41113,6.26456,6.26456,0,0,1-1.91016-.08007,4.11372,4.11372,0,0,1-1.63281-.73828,2.68788,2.68788,0,0,1-.94629-1.25489,1,1,0,0,0-1.89453.64063h-.001a4.695,4.695,0,0,0,1.626,2.20117A6.09063,6.09063,0,0,0,92.76,76.24058a8.22953,8.22953,0,0,0,2.51953.11426A13.62009,13.62009,0,0,0,97.675,75.8773,1.001,1.001,0,0,0,98.36348,74.642Z"></path><path d="M118.81856,79.94273a7.46563,7.46563,0,0,1-1.2461.22949,7.58359,7.58359,0,0,1-3.13867-.34961,4.67965,4.67965,0,0,1-1.49707-.80371,2.12994,2.12994,0,0,1-.75293-1.10644.99976.99976,0,1,0-1.94238.47461,4.11106,4.11106,0,0,0,1.41211,2.165,6.64172,6.64172,0,0,0,2.14453,1.167,9.57488,9.57488,0,0,0,3.96972.44336,9.38626,9.38626,0,0,0,1.58106-.292.99967.99967,0,1,0-.53027-1.92773Z"></path><path d="M107.50313,81.27574a3.36161,3.36161,0,0,1-.41309.0664,3.21545,3.21545,0,0,1-.86035-.02734,2.013,2.013,0,0,1-.86719-.36328,2.40924,2.40924,0,0,1-.63183-.76367l-.002-.002a2.28725,2.28725,0,0,1-.252-.83105l-.00684-.10938a1.00041,1.00041,0,0,0-1.84179-.499,2.34255,2.34255,0,0,1-1.74707.9707,2.3,2.3,0,0,1-1.63184-.418,1.00014,1.00014,0,0,0-1.22656,1.58008,4.29006,4.29006,0,0,0,3.05469.82813,4.69756,4.69756,0,0,0,1.875-.60645l.00683.01563a4.35871,4.35871,0,0,0,1.19727,1.42969,3.99189,3.99189,0,0,0,1.71875.73632,5.32692,5.32692,0,0,0,2.07812-.05859.99979.99979,0,1,0-.45019-1.94824Z"></path><polygon points="64.79 83.113 64.791 83.113 64.791 83.113 64.79 83.113"></polygon><path d="M69.56856,79.90757a9.85553,9.85553,0,0,0,1.97851.32715,10.05471,10.05471,0,0,0,1.585-.03027c.36035-.03516.6836-.08692.96387-.14258A.99974.99974,0,1,0,73.71016,78.1c-.22656.04394-.48535.08593-.77344.11425a8.02852,8.02852,0,0,1-3.56348-.459.99945.99945,0,0,0-1.291.6084,4.10249,4.10249,0,0,1-1.14453,1.708,4.41967,4.41967,0,0,1-2.38282,1.05566.99962.99962,0,1,0,.23584,1.98529,6.3934,6.3934,0,0,0,3.4751-1.54584A5.94006,5.94006,0,0,0,69.56856,79.90757Z"></path><path d="M67.78633,20.2191a31.14283,31.14283,0,0,0,9.15234,7.35449A44.16022,44.16022,0,0,0,83.259,30.46324a1.00738,1.00738,0,0,0,.792-.05176,43.93984,43.93984,0,0,0,10.5166-7.45606,40.60221,40.60221,0,0,0,3.91894-4.12988,13.80742,13.80742,0,0,0,2.49122-4.82715l.001-.002c.11328-.40234.29688-1.05371.4502-1.85352a13.82323,13.82323,0,0,0,.19238-4.35253,8.7595,8.7595,0,0,0-2.15723-4.83692A8.935,8.935,0,0,0,94.50215.23667,9.81079,9.81079,0,0,0,89.53828.555a11.31935,11.31935,0,0,0-6.21582,5.43653A13.43353,13.43353,0,0,0,75.18281.23277l-.19336-.04A11.99855,11.99855,0,0,0,71.47774.0775a8.53917,8.53917,0,0,0-4.9961,2.21972,8.299,8.299,0,0,0-2.33887,4.51465,16.55371,16.55371,0,0,0,.08106,5.71777A16.46025,16.46025,0,0,0,67.78633,20.2191ZM66.10567,7.1898a6.30844,6.30844,0,0,1,1.76074-3.44922,6.54611,6.54611,0,0,1,3.84277-1.67676,10.10959,10.10959,0,0,1,2.90137.0918l.123.02637a11.44,11.44,0,0,1,7.77148,6.44629.99992.99992,0,0,0,1.86523-.085A9.62043,9.62043,0,0,1,90.177,2.45054a7.81528,7.81528,0,0,1,3.94727-.25,6.94686,6.94686,0,0,1,3.85742,2.09473A6.74531,6.74531,0,0,1,99.63692,8.0482a11.883,11.883,0,0,1-.1709,3.7168c-.1377.71-.30078,1.291-.41211,1.68554a11.77155,11.77155,0,0,1-2.14453,4.14551,39.03576,39.03576,0,0,1-3.72852,3.918,41.97906,41.97906,0,0,1-9.66309,6.91406,42.10179,42.10179,0,0,1-8.58789-4.43652,25.77136,25.77136,0,0,1-5.583-5.02344,14.46515,14.46515,0,0,1-3.14844-6.75586A14.66837,14.66837,0,0,1,66.10567,7.1898Z"></path><path d="M88.36152,36.72007a5.28487,5.28487,0,0,0-2.54492-.27343,5.7515,5.7515,0,0,0-4.4414,3.57714l-.002-.001-.00879.02246-.00293.00683v.001l-.0371.09668A5.18065,5.18065,0,0,0,81.926,44.722a7.0642,7.0642,0,0,0,3.49219,2.82422,5.02,5.02,0,0,0,3.20117.14453,4.535,4.535,0,0,0,2.6582-2.31836l.00195-.00293a5.7169,5.7169,0,0,0,.30469-.69141,7.04115,7.04115,0,0,0,.1709-3.916,6.33775,6.33775,0,0,0-.70606-1.86133A5.15355,5.15355,0,0,0,88.36152,36.72007Zm1.34278,7.27637a3.65974,3.65974,0,0,1-.19629.44434,2.5271,2.5271,0,0,1-1.4834,1.34082,3.03343,3.03343,0,0,1-1.9248-.11524,5.08531,5.08531,0,0,1-2.48145-2.01074,3.17768,3.17768,0,0,1-.41406-2.82422l.01074-.0293.0127-.02929a3.77457,3.77457,0,0,1,2.873-2.34668,3.29813,3.29813,0,0,1,1.5791.17383,3.16214,3.16214,0,0,1,1.64942,1.32129,4.38293,4.38293,0,0,1,.47461,1.27734A5.07216,5.07216,0,0,1,89.7043,43.99644Z"></path></g></g></svg></g></svg>